<?xml version="1.0" encoding="utf-8"?>
<!-- Generator: Adobe Illustrator 23.0.3, SVG Export Plug-In . SVG Version: 6.00 Build 0)  -->
<svg version="1.1" id="Camada_1" xmlns="http://www.w3.org/2000/svg" xmlns:xlink="http://www.w3.org/1999/xlink" x="0px" y="0px"
	 viewBox="0 0 62.36 34.57" style="enable-background:new 0 0 62.36 34.57;" xml:space="preserve">
<style type="text/css">
	.st0{fill:#D11B2C;}
</style>
<g>
	<polygon class="st0" points="10.98,23.77 7.06,18 9.62,14.28 12.85,14.28 10.35,18.05 14.19,23.77 18.39,23.77 14.54,18.03 
		19.33,10.79 7.8,10.79 2.83,17.98 6.77,23.77 	"/>
	<path d="M21.4,23.47c-0.2-0.1-0.35-0.25-0.46-0.44c-0.11-0.19-0.17-0.4-0.17-0.63c0-0.23,0.06-0.45,0.17-0.63
		c0.11-0.19,0.27-0.33,0.46-0.44c0.2-0.1,0.41-0.16,0.66-0.16c0.21,0,0.39,0.04,0.56,0.11c0.17,0.07,0.31,0.18,0.42,0.31l-0.35,0.33
		c-0.16-0.19-0.36-0.28-0.6-0.28c-0.15,0-0.28,0.03-0.39,0.1c-0.12,0.06-0.2,0.15-0.27,0.27c-0.06,0.12-0.1,0.25-0.1,0.39
		c0,0.15,0.03,0.28,0.1,0.39c0.06,0.12,0.15,0.2,0.27,0.27c0.12,0.06,0.25,0.1,0.39,0.1c0.24,0,0.44-0.09,0.6-0.28l0.35,0.33
		c-0.11,0.14-0.25,0.24-0.42,0.31c-0.17,0.07-0.35,0.11-0.56,0.11C21.82,23.63,21.6,23.58,21.4,23.47"/>
	<polygon points="31.36,22.75 31.36,23.59 30.81,23.59 30.81,22.74 29.89,21.22 30.47,21.22 31.11,22.27 31.74,21.22 32.28,21.22 	
		"/>
	<path d="M39.76,23.47c-0.2-0.1-0.35-0.25-0.46-0.44c-0.11-0.19-0.17-0.4-0.17-0.63c0-0.23,0.06-0.45,0.17-0.63
		c0.11-0.19,0.27-0.33,0.46-0.44c0.2-0.1,0.41-0.16,0.66-0.16c0.21,0,0.39,0.04,0.56,0.11c0.17,0.07,0.31,0.18,0.42,0.31l-0.35,0.33
		c-0.16-0.19-0.36-0.28-0.6-0.28c-0.15,0-0.28,0.03-0.39,0.1c-0.12,0.06-0.2,0.15-0.27,0.27c-0.06,0.12-0.1,0.25-0.1,0.39
		c0,0.15,0.03,0.28,0.1,0.39c0.06,0.12,0.15,0.2,0.27,0.27c0.12,0.06,0.25,0.1,0.39,0.1c0.24,0,0.44-0.09,0.6-0.28l0.35,0.33
		c-0.11,0.14-0.25,0.24-0.42,0.31c-0.17,0.07-0.35,0.11-0.56,0.11C40.17,23.63,39.95,23.58,39.76,23.47"/>
	<polygon points="48.57,21.22 49.12,21.22 49.12,23.14 50.3,23.14 50.3,23.59 48.57,23.59 	"/>
	<polygon points="59.53,23.15 59.53,23.59 57.69,23.59 57.69,21.22 59.49,21.22 59.49,21.66 58.24,21.66 58.24,22.18 59.34,22.18 
		59.34,22.6 58.24,22.6 58.24,23.15 	"/>
	<path d="M49.69,11.98l-3.55,4.78c-0.15-0.48-1.69-4.78-1.69-4.78h-2.67l3.1,7.97h1.64l6.17-7.97H49.69z"/>
	<polygon points="56.59,11.98 54.22,11.98 48.22,19.94 51.12,19.94 55.05,14.55 56.9,19.94 59.53,19.94 	"/>
	<polygon points="40.38,11.98 38,11.98 32,19.94 34.91,19.94 38.84,14.55 40.69,19.94 43.32,19.94 	"/>
	<path d="M26.77,11.98l-6,7.97l2.8-0.02l4.54-6.02h4.15l-1.05,1.39h-3.83l1.66,4.65h2.34l-0.91-2.71c0.21,0,2.05,0,2.05,0l3.97-5.26
		H26.77z"/>
	<polygon points="41.94,19.23 37.53,19.23 36.85,17.28 41.94,17.28 	"/>
	<polygon points="58.26,19.23 53.85,19.23 53.17,17.28 58.26,17.28 	"/>
</g>
</svg>
