<?xml version="1.0" encoding="utf-8"?>
<!-- Generator: Adobe Illustrator 22.1.0, SVG Export Plug-In . SVG Version: 6.00 Build 0)  -->
<svg version="1.1" id="Camada_1" xmlns="http://www.w3.org/2000/svg" xmlns:xlink="http://www.w3.org/1999/xlink" x="0px" y="0px"
	 viewBox="0 0 200 200" style="enable-background:new 0 0 200 200;" xml:space="preserve">
<style type="text/css">
	.st0{fill:#333333;}
	.st1{fill:#FF4C0B;}
	.st2{opacity:0.1;fill:url(#SVGID_1_);}
	.st3{opacity:0.1;fill:url(#SVGID_2_);}
	.st4{opacity:0.1;fill:url(#SVGID_3_);}
	.st5{opacity:5.000000e-02;fill:url(#SVGID_4_);}
	.st6{fill:#E74E1C;}
</style>
<g>
	<g>
		<path class="st0" d="M57.9,143.8v-4.9h2.6c0.9,0,1.4,0.6,1.4,1.3c0,0.6-0.4,1-0.9,1.1c0.5,0.1,0.9,0.6,0.9,1.2
			c0,0.7-0.5,1.3-1.4,1.3H57.9z M60.9,140.3c0-0.3-0.2-0.5-0.6-0.5H59v1h1.3C60.7,140.8,60.9,140.6,60.9,140.3 M61,142.3
			c0-0.3-0.2-0.6-0.6-0.6H59v1.1h1.4C60.8,142.9,61,142.7,61,142.3"/>
		<rect x="86.2" y="138.9" class="st0" width="1.1" height="4.9"/>
		<polygon class="st0" points="114.4,143.8 112.9,141.8 112.5,142.3 112.5,143.8 111.4,143.8 111.4,138.9 112.5,138.9 112.5,141.1 
			114.2,138.9 115.5,138.9 113.6,141.2 115.7,143.8 		"/>
		<polygon class="st0" points="138.6,143.8 138.6,138.9 142.1,138.9 142.1,139.8 139.6,139.8 139.6,140.8 142,140.8 142,141.7 
			139.6,141.7 139.6,142.9 142.1,142.9 142.1,143.8 		"/>
	</g>
	<g>
		<path class="st1" d="M121.7,79c-0.1-1.7-0.3-3.4-0.7-5.1c0,0.1-0.3,0.1-0.4,0.1c-0.3,0-0.7,0-1,0c-0.5,0-1,0-1.5,0
			c1.3,4.5,1.1,9.4-0.7,13.8c-1.7,4.1-4.6,7.6-8.4,10c-3.6,2.3-8,3.4-12.3,3.1c-4.4-0.3-8.6-1.9-12-4.7c-3.3-2.7-5.8-6.4-6.9-10.6
			c-1.2-4.3-1-8.9,0.6-13.1c1.5-4,4.3-7.6,7.9-10c3.6-2.5,8-3.7,12.4-3.6c4.3,0.1,8.6,1.7,12,4.3c1.8,1.3,3.3,3,4.5,4.8
			c0.1,0.2,0.3,0.4,0.4,0.6c0.1,0.1,0.2,0.2,0.2,0.4c0,0,0.1,0.2,0.1,0.2c0.1,0,0.3,0,0.4,0c0.6,0,1.2,0,1.7,0c0.3,0,0.7,0,1,0
			c-2.1-4.1-5.4-7.6-9.4-9.9c-3.9-2.3-8.5-3.3-13-3.1c-4.1,0.2-8.2,1.5-11.7,3.8c-3.9,2.5-7,6.1-8.8,10.3c-1.9,4.2-2.5,8.9-1.7,13.5
			c0.7,4,2.4,7.8,4.9,11c2.9,3.6,6.8,6.3,11.2,7.7c4.6,1.5,9.7,1.5,14.3,0.1c4.5-1.4,8.6-4.2,11.5-7.9c2.8-3.5,4.6-7.8,5-12.2
			C121.7,81.4,121.8,80.2,121.7,79z"/>
	</g>
	<linearGradient id="SVGID_1_" gradientUnits="userSpaceOnUse" x1="114.7701" y1="65.2479" x2="79.7455" y2="95.9485">
		<stop  offset="0" style="stop-color:#FFFFFF"/>
		<stop  offset="1" style="stop-color:#000000"/>
	</linearGradient>
	<path class="st2" d="M121.7,79c-0.1-1.7-0.3-3.4-0.7-5.1c0,0.1-0.3,0.1-0.4,0.1c-0.3,0-0.7,0-1,0c-0.5,0-1,0-1.5,0
		c1.3,4.5,1.1,9.4-0.7,13.8c-1.7,4.1-4.6,7.6-8.4,10c-3.6,2.3-8,3.4-12.3,3.1c-4.4-0.3-8.6-1.9-12-4.7c-3.3-2.7-5.8-6.4-6.9-10.6
		c-1.2-4.3-1-8.9,0.6-13.1c1.5-4,4.3-7.6,7.9-10c3.6-2.5,8-3.7,12.4-3.6c4.3,0.1,8.6,1.7,12,4.3c1.8,1.3,3.3,3,4.5,4.8
		c0.1,0.2,0.3,0.4,0.4,0.6c0.1,0.1,0.2,0.2,0.2,0.4c0,0,0.1,0.2,0.1,0.2c0.1,0,0.3,0,0.4,0c0.6,0,1.2,0,1.7,0c0.3,0,0.7,0,1,0
		c-2.1-4.1-5.4-7.6-9.4-9.9c-3.9-2.3-8.5-3.3-13-3.1c-4.1,0.2-8.2,1.5-11.7,3.8c-3.9,2.5-7,6.1-8.8,10.3c-1.9,4.2-2.5,8.9-1.7,13.5
		c0.7,4,2.4,7.8,4.9,11c2.9,3.6,6.8,6.3,11.2,7.7c4.6,1.5,9.7,1.5,14.3,0.1c4.5-1.4,8.6-4.2,11.5-7.9c2.8-3.5,4.6-7.8,5-12.2
		C121.7,81.4,121.8,80.2,121.7,79z"/>
	<g>
		<path class="st1" d="M106.8,72.2c-2.4,0-4.6,0.9-6.3,2.6c-3.6,3.6-12.2,12.1-15.4,15.3c-0.4,0.4-0.1,1.2,0.5,1.2l10.5,0
			c1.7,0,3.3-0.7,4.5-1.9c3.2-3.2,9.6-9.6,12.5-12.6c0.4-0.4,0.9-0.6,1.5-0.6c3.3,0,3.7,0,7.6,0l4.1-4.1l-8.5,0L106.8,72.2z"/>
		<path class="st1" d="M82.5,76.3c2.5,0,9.1,0,13.8,0c0.7-0.7,1.4-1.4,2-2c0.9-0.9,1.8-1.6,2.9-2.1c-4.9,0-14,0-15.5,0
			c-0.5,0-1,0.2-1.3,0.6L82,75.1C81.6,75.5,81.9,76.3,82.5,76.3z"/>
		<linearGradient id="SVGID_2_" gradientUnits="userSpaceOnUse" x1="95.6703" y1="69.6546" x2="79.5473" y2="85.4687">
			<stop  offset="0" style="stop-color:#FFFFFF"/>
			<stop  offset="1" style="stop-color:#000000"/>
		</linearGradient>
		<path class="st3" d="M82.5,76.3c2.5,0,9.1,0,13.8,0c0.7-0.7,1.4-1.4,2-2c0.9-0.9,1.8-1.6,2.9-2.1c-4.9,0-14,0-15.5,0
			c-0.5,0-1,0.2-1.3,0.6L82,75.1C81.6,75.5,81.9,76.3,82.5,76.3z"/>
		<linearGradient id="SVGID_3_" gradientUnits="userSpaceOnUse" x1="121.2817" y1="73.947" x2="113.97" y2="77.0418">
			<stop  offset="0" style="stop-color:#FFFFFF"/>
			<stop  offset="1" style="stop-color:#000000"/>
		</linearGradient>
		<path class="st4" d="M126.4,72.2c0,0-4.4,0-6.8,0c-1.1,0-2.1,0.4-2.9,1.2l-3.2,3.1c0.3-0.2,0.6-0.3,1-0.3c3.3,0,7.6,0,7.6,0
			L126.4,72.2z"/>
		<linearGradient id="SVGID_4_" gradientUnits="userSpaceOnUse" x1="108.8353" y1="74.5018" x2="90.071" y2="91.7798">
			<stop  offset="0" style="stop-color:#FFFFFF"/>
			<stop  offset="1" style="stop-color:#000000"/>
		</linearGradient>
		<path class="st5" d="M117.9,72.2l-11.1,0c-2.4,0-4.6,0.9-6.3,2.6c-3.6,3.6-12.2,12.1-15.4,15.3c-0.4,0.4-0.1,1.2,0.5,1.2l10.5,0
			c1.7,0,3.3-0.7,4.5-1.9C103.8,86.3,117.9,72.2,117.9,72.2z"/>
	</g>
	<g>
		<path class="st0" d="M52.2,119.2c4.7,0,14.2,0,14.2,0l0.1,0c0.7,0,1.3-0.3,1.8-0.7l2.1-2.1c0.3-0.3,0.1-0.9-0.4-0.9
			c-5.5,0-27.7,0-38.7,0c-2.5,0-7.5,0-8.9,0c-0.3,0-0.5,0.1-0.7,0.3l-2.2,2.2c-0.5,0.5-0.1,1.2,0.5,1.3h0l16.8,0
			c0.5,0,0.7,0.5,0.4,0.9c-2.3,2.3-8.4,8.4-11.3,11.3c0,0,0,0,0,0c-0.4,0.4-0.1,1.2,0.5,1.2c0,0,3.9,0,9.6,0c1.4,0,2.5-0.5,3.5-1.5
			c3.5-3.6,7.8-7.8,11.4-11.4C51.3,119.4,51.7,119.2,52.2,119.2"/>
		<path class="st0" d="M99.5,123.6c-5.3-1.2-10.7-2.4-16-3.7c-0.2-0.1-0.5-0.2-0.7-0.3c0-0.1,0-0.2,0-0.3c0.3,0,0.5-0.1,0.8-0.1
			c3.5,0,6.9,0,10.4,0c2.2,0,4.5,0,6.7,0l0,0c0.9,0,5,0,6,0c5.4,0,10.8,0,16.2,0c0.6,0,1.1-0.2,1.5-0.7l1.8-2.2
			c0.3-0.3,0-0.8-0.4-0.8c-9.6,0-19.2,0-28.9,0c0,0-11.6,0-19.2,0c-0.7,0-1.5,0-2.2,0.1c-2.1,0.2-3.7,0.7-5.3,2.2
			c-1.3,1.2-1.3,3.3-0.2,4.6c1,1.2,2.7,1.9,4.1,2.3c3.5,0.9,6.7,1.7,10.2,2.6c1.3,0.3,2.3,0.6,3.6,0.9c0.1,0,0.6,0.2,0.7,0.3
			c-0.1,0.1-0.3,0.2-0.4,0.3c-0.2,0-0.4,0-0.7,0c-9.6,0-23,0-32.6,0c-0.7,0-1.5,0.1-2,0.4c-1,0.7-1.9,1.7-2.8,2.6
			c-0.3,0.3-0.1,0.8,0.4,0.8c0.2,0,0.3,0,0.5,0c14.8,0,29.7,0,44.5,0.1c0.8,0,1.5,0,2.3-0.1c1.8-0.2,3.4-0.6,4.9-1.7
			c0.4-0.3,0.7-0.6,1-0.9c1.1-1.3,1.1-2.9-0.1-4.2C102.6,124.6,101.1,124,99.5,123.6"/>
		<path class="st6" d="M178.9,115.5l-3.7,3.7c0.6,0,1.1,0,1.6,0c0.5,0,1.1-0.2,1.4-0.6l2.3-2.3c0.3-0.3,0.1-0.9-0.4-0.9H178.9z"/>
		<path class="st6" d="M175.7,115.5l-3.7,3.7c0.9,0,1.7,0,2.5,0l3.7-3.7H175.7z"/>
		<path class="st6" d="M172.5,115.5l-3.7,3.7c0.8,0,1.7,0,2.5,0l3.7-3.7H172.5z"/>
		<path class="st0" d="M156.4,115.5c-0.8,0-1.6,0.3-2.2,0.8c-2.8,2.3-10.6,8.6-11.2,9c-0.5,0.3-1.1-0.2-0.8-0.8c0,0,4.5-8.2,4.5-8.3
			c0.2-0.3,0-0.7-0.4-0.7c0,0-7.7,0-11.6,0c-0.6,0-1,0.1-1.5,0.5c-3.7,2.8-7.6,5.7-11.3,8.4c-0.6,0.5-1.2,0.8-2,0.8
			c-0.6,0-0.7-0.1-0.4-0.5c1.1-1.6,2.8-3.1,3.9-4.7c-3.1,0-6.2,0-9.3,0c-1.5,2.4-7.3,10.5-7.3,10.5c0,0.1-0.1,0.1-0.1,0.2
			c-0.1,0.9,0.2,1.6,1.4,1.9c0,0,0.1,0,0.1,0l10.3,0c0,0,0,0,0.1,0c2-0.3,3.6-1.2,5.1-2.3c3.1-2.3,6.1-4.5,9.2-6.8
			c0.2-0.2,0.5-0.3,0.9-0.5c-0.1,0.1-0.2,0.3-0.3,0.4c-1.3,2.3-2.5,4.6-3.8,6.9c-1.3,2.4,1.6,2.3,1.6,2.3l9.6,0c0,0,0.1,0,0.1,0
			c2.7-0.5,4.8-1.6,6.6-3.1c3.7-3,10.5-8.6,12.3-10c0.3-0.2,0.6-0.3,1-0.3c1.1,0,4,0,7.1,0l3.7-3.7L156.4,115.5z"/>
	</g>
</g>
</svg>
